<mxfile host="app.diagrams.net" modified="2022-09-26T01:16:08.875Z" agent="5.0 (Windows NT 10.0; Win64; x64) AppleWebKit/537.36 (KHTML, like Gecko) Chrome/105.0.0.0 Safari/537.36" etag="kO8eoJaJfVj13WWFiF-L" version="15.8.3" type="github">
  <diagram id="R2lEEEUBdFMjLlhIrx00" name="Page-1">
    <mxGraphModel dx="2062" dy="1162" grid="1" gridSize="10" guides="1" tooltips="1" connect="1" arrows="1" fold="1" page="1" pageScale="1" pageWidth="850" pageHeight="1100" math="0" shadow="0" extFonts="Permanent Marker^https://fonts.googleapis.com/css?family=Permanent+Marker">
      <root>
        <mxCell id="0" />
        <mxCell id="1" parent="0" />
        <mxCell id="6GxGnjm8dAnhBYVgVaJ6-19" value="" style="rounded=0;whiteSpace=wrap;html=1;" vertex="1" parent="1">
          <mxGeometry x="518" y="621" width="320" height="380" as="geometry" />
        </mxCell>
        <mxCell id="6GxGnjm8dAnhBYVgVaJ6-18" value="" style="rounded=0;whiteSpace=wrap;html=1;" vertex="1" parent="1">
          <mxGeometry x="10" y="620" width="320" height="380" as="geometry" />
        </mxCell>
        <mxCell id="6GxGnjm8dAnhBYVgVaJ6-8" value="Etcd Cluster                                  " style="group" vertex="1" connectable="0" parent="1">
          <mxGeometry x="420" y="23" width="200" height="160" as="geometry" />
        </mxCell>
        <mxCell id="6GxGnjm8dAnhBYVgVaJ6-5" value="" style="html=1;whiteSpace=wrap;shape=isoCube2;backgroundOutline=1;isoAngle=15;" vertex="1" parent="6GxGnjm8dAnhBYVgVaJ6-8">
          <mxGeometry x="60" width="90" height="100" as="geometry" />
        </mxCell>
        <mxCell id="6GxGnjm8dAnhBYVgVaJ6-6" value="" style="html=1;whiteSpace=wrap;shape=isoCube2;backgroundOutline=1;isoAngle=15;" vertex="1" parent="6GxGnjm8dAnhBYVgVaJ6-8">
          <mxGeometry y="60" width="90" height="100" as="geometry" />
        </mxCell>
        <mxCell id="6GxGnjm8dAnhBYVgVaJ6-7" value="" style="html=1;whiteSpace=wrap;shape=isoCube2;backgroundOutline=1;isoAngle=15;" vertex="1" parent="6GxGnjm8dAnhBYVgVaJ6-8">
          <mxGeometry x="110" y="60" width="90" height="100" as="geometry" />
        </mxCell>
        <mxCell id="6GxGnjm8dAnhBYVgVaJ6-13" style="edgeStyle=orthogonalEdgeStyle;rounded=0;orthogonalLoop=1;jettySize=auto;html=1;" edge="1" parent="1" source="6GxGnjm8dAnhBYVgVaJ6-2" target="6GxGnjm8dAnhBYVgVaJ6-4">
          <mxGeometry relative="1" as="geometry" />
        </mxCell>
        <mxCell id="6GxGnjm8dAnhBYVgVaJ6-2" value="kubectl" style="rounded=0;whiteSpace=wrap;html=1;" vertex="1" parent="1">
          <mxGeometry x="140" y="306" width="120" height="60" as="geometry" />
        </mxCell>
        <mxCell id="6GxGnjm8dAnhBYVgVaJ6-1" value="Actor" style="shape=umlActor;verticalLabelPosition=bottom;verticalAlign=top;html=1;outlineConnect=0;" vertex="1" parent="1">
          <mxGeometry x="20" y="316" width="30" height="60" as="geometry" />
        </mxCell>
        <mxCell id="6GxGnjm8dAnhBYVgVaJ6-3" value="" style="endArrow=classic;html=1;rounded=0;exitX=1;exitY=0.3333333333333333;exitDx=0;exitDy=0;exitPerimeter=0;entryX=0;entryY=0.5;entryDx=0;entryDy=0;" edge="1" parent="1" source="6GxGnjm8dAnhBYVgVaJ6-1" target="6GxGnjm8dAnhBYVgVaJ6-2">
          <mxGeometry width="50" height="50" relative="1" as="geometry">
            <mxPoint x="90" y="376" as="sourcePoint" />
            <mxPoint x="140" y="326" as="targetPoint" />
          </mxGeometry>
        </mxCell>
        <mxCell id="6GxGnjm8dAnhBYVgVaJ6-12" value="kubectl run pod" style="edgeLabel;html=1;align=center;verticalAlign=middle;resizable=0;points=[];" vertex="1" connectable="0" parent="6GxGnjm8dAnhBYVgVaJ6-3">
          <mxGeometry x="0.2593" y="-2" relative="1" as="geometry">
            <mxPoint x="-17" y="-22" as="offset" />
          </mxGeometry>
        </mxCell>
        <mxCell id="6GxGnjm8dAnhBYVgVaJ6-4" value="api-server" style="shape=ext;double=1;rounded=0;whiteSpace=wrap;html=1;" vertex="1" parent="1">
          <mxGeometry x="350" y="296" width="120" height="80" as="geometry" />
        </mxCell>
        <mxCell id="6GxGnjm8dAnhBYVgVaJ6-10" value="controller-manager" style="shape=ext;double=1;rounded=0;whiteSpace=wrap;html=1;" vertex="1" parent="1">
          <mxGeometry x="600" y="218" width="120" height="80" as="geometry" />
        </mxCell>
        <mxCell id="6GxGnjm8dAnhBYVgVaJ6-11" value="scheduler" style="shape=ext;double=1;rounded=0;whiteSpace=wrap;html=1;" vertex="1" parent="1">
          <mxGeometry x="600" y="380" width="120" height="80" as="geometry" />
        </mxCell>
        <mxCell id="6GxGnjm8dAnhBYVgVaJ6-15" value="kubelet" style="shape=ext;double=1;rounded=0;whiteSpace=wrap;html=1;" vertex="1" parent="1">
          <mxGeometry x="110" y="640" width="120" height="80" as="geometry" />
        </mxCell>
        <mxCell id="6GxGnjm8dAnhBYVgVaJ6-16" value="kubelet" style="shape=ext;double=1;rounded=0;whiteSpace=wrap;html=1;" vertex="1" parent="1">
          <mxGeometry x="618" y="640" width="120" height="80" as="geometry" />
        </mxCell>
        <mxCell id="6GxGnjm8dAnhBYVgVaJ6-20" value="node 1" style="text;html=1;strokeColor=none;fillColor=none;align=center;verticalAlign=middle;whiteSpace=wrap;rounded=0;" vertex="1" parent="1">
          <mxGeometry x="20" y="630" width="60" height="30" as="geometry" />
        </mxCell>
        <mxCell id="6GxGnjm8dAnhBYVgVaJ6-21" value="node 2" style="text;html=1;strokeColor=none;fillColor=none;align=center;verticalAlign=middle;whiteSpace=wrap;rounded=0;" vertex="1" parent="1">
          <mxGeometry x="530" y="630" width="60" height="30" as="geometry" />
        </mxCell>
        <mxCell id="6GxGnjm8dAnhBYVgVaJ6-22" value="Pod 1" style="shape=ext;double=1;whiteSpace=wrap;html=1;aspect=fixed;" vertex="1" parent="1">
          <mxGeometry x="40" y="810" width="80" height="80" as="geometry" />
        </mxCell>
        <mxCell id="6GxGnjm8dAnhBYVgVaJ6-23" value="Pod 3" style="shape=ext;double=1;whiteSpace=wrap;html=1;aspect=fixed;" vertex="1" parent="1">
          <mxGeometry x="120" y="900" width="80" height="80" as="geometry" />
        </mxCell>
        <mxCell id="6GxGnjm8dAnhBYVgVaJ6-24" value="Pod 2" style="shape=ext;double=1;whiteSpace=wrap;html=1;aspect=fixed;" vertex="1" parent="1">
          <mxGeometry x="210" y="810" width="80" height="80" as="geometry" />
        </mxCell>
        <mxCell id="6GxGnjm8dAnhBYVgVaJ6-25" value="Pod 1" style="shape=ext;double=1;whiteSpace=wrap;html=1;aspect=fixed;" vertex="1" parent="1">
          <mxGeometry x="600" y="860" width="80" height="80" as="geometry" />
        </mxCell>
        <mxCell id="6GxGnjm8dAnhBYVgVaJ6-28" value="" style="endArrow=classic;startArrow=classic;html=1;rounded=0;exitX=0.5;exitY=0;exitDx=0;exitDy=0;" edge="1" parent="1" source="6GxGnjm8dAnhBYVgVaJ6-4">
          <mxGeometry width="50" height="50" relative="1" as="geometry">
            <mxPoint x="430" y="268" as="sourcePoint" />
            <mxPoint x="520" y="180" as="targetPoint" />
          </mxGeometry>
        </mxCell>
        <mxCell id="6GxGnjm8dAnhBYVgVaJ6-29" value="" style="endArrow=classic;startArrow=classic;html=1;rounded=0;exitX=1;exitY=0.5;exitDx=0;exitDy=0;entryX=0;entryY=0.5;entryDx=0;entryDy=0;" edge="1" parent="1" source="6GxGnjm8dAnhBYVgVaJ6-4" target="6GxGnjm8dAnhBYVgVaJ6-10">
          <mxGeometry width="50" height="50" relative="1" as="geometry">
            <mxPoint x="420" y="306" as="sourcePoint" />
            <mxPoint x="530" y="190" as="targetPoint" />
            <Array as="points" />
          </mxGeometry>
        </mxCell>
        <mxCell id="6GxGnjm8dAnhBYVgVaJ6-31" value="List-Watch" style="edgeLabel;html=1;align=center;verticalAlign=middle;resizable=0;points=[];" vertex="1" connectable="0" parent="6GxGnjm8dAnhBYVgVaJ6-29">
          <mxGeometry x="-0.2255" y="-3" relative="1" as="geometry">
            <mxPoint x="-4" y="-28" as="offset" />
          </mxGeometry>
        </mxCell>
        <mxCell id="6GxGnjm8dAnhBYVgVaJ6-30" value="" style="endArrow=classic;startArrow=classic;html=1;rounded=0;entryX=0;entryY=0.5;entryDx=0;entryDy=0;" edge="1" parent="1" target="6GxGnjm8dAnhBYVgVaJ6-11">
          <mxGeometry width="50" height="50" relative="1" as="geometry">
            <mxPoint x="470" y="340" as="sourcePoint" />
            <mxPoint x="610" y="268" as="targetPoint" />
            <Array as="points" />
          </mxGeometry>
        </mxCell>
        <mxCell id="6GxGnjm8dAnhBYVgVaJ6-32" value="List-Watch" style="edgeLabel;html=1;align=center;verticalAlign=middle;resizable=0;points=[];" vertex="1" connectable="0" parent="1">
          <mxGeometry x="529.9955698833227" y="409.9972292069135" as="geometry" />
        </mxCell>
        <mxCell id="6GxGnjm8dAnhBYVgVaJ6-33" value="" style="endArrow=classic;startArrow=classic;html=1;rounded=0;entryX=0.5;entryY=0;entryDx=0;entryDy=0;" edge="1" parent="1" target="6GxGnjm8dAnhBYVgVaJ6-15">
          <mxGeometry width="50" height="50" relative="1" as="geometry">
            <mxPoint x="410" y="380" as="sourcePoint" />
            <mxPoint x="610" y="430" as="targetPoint" />
            <Array as="points" />
          </mxGeometry>
        </mxCell>
        <mxCell id="6GxGnjm8dAnhBYVgVaJ6-34" value="" style="endArrow=classic;startArrow=classic;html=1;rounded=0;entryX=0.5;entryY=0;entryDx=0;entryDy=0;" edge="1" parent="1" target="6GxGnjm8dAnhBYVgVaJ6-16">
          <mxGeometry width="50" height="50" relative="1" as="geometry">
            <mxPoint x="410" y="380" as="sourcePoint" />
            <mxPoint x="180" y="650" as="targetPoint" />
            <Array as="points" />
          </mxGeometry>
        </mxCell>
      </root>
    </mxGraphModel>
  </diagram>
</mxfile>
